<svg xmlns="http://www.w3.org/2000/svg" width="127.951" height="21.452" viewBox="0 0 127.951 21.452">
    <defs>
        <style>
            .cls-1{fill:#292929}.cls-2{fill:#4285f4}
        </style>
    </defs>
    <g id="simbiosys_1_" data-name="simbiosys (1)" transform="translate(-23.8 -10.787)">
        <path id="Path_61" d="M31.429 32.176a8.988 8.988 0 0 1-2.523-.36 7.548 7.548 0 0 1-2.193-1.116 7.628 7.628 0 0 1-1.742-1.8 9.934 9.934 0 0 1-1.171-2.49l3.634-1.442a5.652 5.652 0 0 0 1.412 2.553 3.575 3.575 0 0 0 2.643 1.021 5.218 5.218 0 0 0 1.171-.15 2.969 2.969 0 0 0 .991-.451 1.844 1.844 0 0 0 .691-.751 2.192 2.192 0 0 0 .27-1.051 2.4 2.4 0 0 0-.21-1.021 2.681 2.681 0 0 0-.661-.871 6.566 6.566 0 0 0-1.231-.781c-.6-.3-1.231-.541-1.862-.781l-1.261-.451a9.447 9.447 0 0 1-1.682-.781 7.391 7.391 0 0 1-1.532-1.171 6.1 6.1 0 0 1-1.141-1.622 5.089 5.089 0 0 1-.451-2.1 5.332 5.332 0 0 1 .481-2.253 5.809 5.809 0 0 1 1.352-1.832 6.325 6.325 0 0 1 2.072-1.231 8.235 8.235 0 0 1 2.7-.451 7.435 7.435 0 0 1 2.673.42 6.654 6.654 0 0 1 1.922 1.051 5.14 5.14 0 0 1 1.261 1.412 6.1 6.1 0 0 1 .721 1.472l-3.424 1.412a3.429 3.429 0 0 0-1.051-1.532 3.04 3.04 0 0 0-2.072-.691 3.359 3.359 0 0 0-2.072.6 1.83 1.83 0 0 0-.841 1.532 1.9 1.9 0 0 0 .811 1.562 8.733 8.733 0 0 0 2.553 1.231l1.292.42a15.074 15.074 0 0 1 2.253.991 7.613 7.613 0 0 1 1.742 1.322 5.2 5.2 0 0 1 1.111 1.772 6.515 6.515 0 0 1 .39 2.283 5.834 5.834 0 0 1-.631 2.763 5.545 5.545 0 0 1-1.649 1.887 7.171 7.171 0 0 1-2.253 1.111 9.1 9.1 0 0 1-2.493.365zm22.286-14.447h3.514v1.832h.24a4.918 4.918 0 0 1 1.772-1.652 5.124 5.124 0 0 1 2.493-.631 4.621 4.621 0 0 1 2.673.751 3.954 3.954 0 0 1 1.532 1.832 5.619 5.619 0 0 1 1.862-1.8 5.224 5.224 0 0 1 2.913-.751 5.142 5.142 0 0 1 2.223.42A4.286 4.286 0 0 1 74.5 18.9a5.293 5.293 0 0 1 .931 1.772 7.343 7.343 0 0 1 .3 2.283v8.83h-3.754v-8.2c0-1.892-.781-2.853-2.343-2.853a2.618 2.618 0 0 0-1.322.33 2.514 2.514 0 0 0-.961.9 4.378 4.378 0 0 0-.6 1.322 6.232 6.232 0 0 0-.21 1.652v6.818h-3.755v-8.17c0-1.892-.811-2.853-2.463-2.853a2.335 2.335 0 0 0-1.261.33 2.589 2.589 0 0 0-.9.9 4.638 4.638 0 0 0-.571 1.322 6.232 6.232 0 0 0-.21 1.652v6.818h-3.756V17.729zm25.17-6.488h3.754V17.4l-.24 2.012h.24a4.028 4.028 0 0 1 1.592-1.5 5.169 5.169 0 0 1 2.673-.631 5.861 5.861 0 0 1 2.553.571 6.779 6.779 0 0 1 2.133 1.532 7.168 7.168 0 0 1 1.472 2.373 8.614 8.614 0 0 1 0 6.007 7.486 7.486 0 0 1-1.472 2.373 6.548 6.548 0 0 1-4.686 2.1 5.169 5.169 0 0 1-2.673-.631 4.249 4.249 0 0 1-1.592-1.5H82.4v1.682h-3.515zm7.239 17.481a3.316 3.316 0 0 0 1.412-.3 3.165 3.165 0 0 0 1.171-.811 4.035 4.035 0 0 0 .841-1.261 3.932 3.932 0 0 0 .3-1.652 4.359 4.359 0 0 0-.3-1.652 3.578 3.578 0 0 0-.841-1.261 4.537 4.537 0 0 0-1.171-.811 3.635 3.635 0 0 0-2.823-.03 3.943 3.943 0 0 0-1.2.781 3.948 3.948 0 0 0-1.141 2.943 4.624 4.624 0 0 0 .3 1.682 3.653 3.653 0 0 0 2.042 2.042 2.954 2.954 0 0 0 1.41.33zm10 3v-14h3.726v14zm13.666-14.477a7.706 7.706 0 0 1 2.974.571 7.2 7.2 0 0 1 2.343 1.532 6.6 6.6 0 0 1 1.532 2.373 8.19 8.19 0 0 1 0 6.007 7.661 7.661 0 0 1-1.532 2.373 6.743 6.743 0 0 1-2.343 1.532 7.814 7.814 0 0 1-2.974.571 7.706 7.706 0 0 1-2.973-.571 7.2 7.2 0 0 1-2.343-1.532 6.6 6.6 0 0 1-1.532-2.373 8.189 8.189 0 0 1 0-6.007 7.661 7.661 0 0 1 1.532-2.373 6.743 6.743 0 0 1 2.343-1.532 7.706 7.706 0 0 1 2.974-.567zm0 11.474a3.542 3.542 0 0 0 1.382-.27 3.558 3.558 0 0 0 1.982-2.042 4.86 4.86 0 0 0 0-3.364 3.5 3.5 0 0 0-.811-1.261 3.809 3.809 0 0 0-1.17-.782 3.652 3.652 0 0 0-1.382-.27 3.8 3.8 0 0 0-1.412.27 3.558 3.558 0 0 0-1.982 2.042 4.86 4.86 0 0 0 0 3.364 3.558 3.558 0 0 0 1.982 2.042 3.8 3.8 0 0 0 1.412.27zm15.228 3.454a8.208 8.208 0 0 1-2.433-.33 7.119 7.119 0 0 1-1.862-.9 5.4 5.4 0 0 1-1.322-1.292 7.166 7.166 0 0 1-.841-1.472l3.34-1.439a3.8 3.8 0 0 0 1.292 1.622 3.249 3.249 0 0 0 1.8.541 3 3 0 0 0 1.622-.36 1.034 1.034 0 0 0 .6-.9 1.106 1.106 0 0 0-.511-.931 4.507 4.507 0 0 0-1.742-.631l-1.982-.42a6.494 6.494 0 0 1-1.352-.451 5.033 5.033 0 0 1-1.261-.811 3.917 3.917 0 0 1-.931-1.171 2.958 2.958 0 0 1-.36-1.592 3.935 3.935 0 0 1 .451-1.832 4.332 4.332 0 0 1 1.2-1.352 5.887 5.887 0 0 1 1.8-.871 8 8 0 0 1 2.253-.3 7.76 7.76 0 0 1 3.574.781 4.808 4.808 0 0 1 2.313 2.493l-3.184 1.322a2.527 2.527 0 0 0-1.171-1.2 3.473 3.473 0 0 0-1.532-.36 2.954 2.954 0 0 0-1.412.33.984.984 0 0 0-.6.841.9.9 0 0 0 .511.781 5.232 5.232 0 0 0 1.352.511l2.133.511a6.043 6.043 0 0 1 3.184 1.652A3.847 3.847 0 0 1 131 27.611a3.919 3.919 0 0 1-.42 1.742 4.792 4.792 0 0 1-1.2 1.472 6.411 6.411 0 0 1-1.892 1.021 8.546 8.546 0 0 1-2.469.33z" class="cls-1"></path>
        <g id="Group_121" transform="translate(41.228 11.039)">
            <path id="Union_14" d="M3840.876 860.827a3.988 3.988 0 0 1 .931-2.553c0-.03 0-.03.03-.03a6.483 6.483 0 0 0 1.472-4.085 6.313 6.313 0 0 0-1.231-3.755l-.06-.06a3.908 3.908 0 1 1 5.437-5.617l.09.09a3.925 3.925 0 0 1 .24 5.286v.03a6.489 6.489 0 0 0 .06 8.23v.03a3.912 3.912 0 1 1-6.127 4.866 3.982 3.982 0 0 1-.842-2.432zm1.952-13.215a1.952 1.952 0 1 0 1.952-1.952 1.948 1.948 0 0 0-1.951 1.951z" class="cls-2" transform="translate(-3840.823 -843.624)"></path>
        </g>
        <circle id="Ellipse_50" cx="1.952" cy="1.952" r="1.952" class="cls-2" transform="translate(96.095 11.062)"></circle>
        <path id="Rectangle_96" d="M0 0h3.754v13.997H0z" class="cls-1" data-name="Rectangle 96" transform="translate(133.309 17.729)"></path>
        <path id="Path_295" d="M415.058 47.292a8.208 8.208 0 0 1-2.433-.33 7.119 7.119 0 0 1-1.862-.9 5.4 5.4 0 0 1-1.322-1.292 7.166 7.166 0 0 1-.841-1.47l3.334-1.442a3.8 3.8 0 0 0 1.292 1.622 3.249 3.249 0 0 0 1.8.541 3 3 0 0 0 1.622-.36 1.034 1.034 0 0 0 .6-.9 1.106 1.106 0 0 0-.511-.931A4.507 4.507 0 0 0 415 41.2l-1.982-.42a6.493 6.493 0 0 1-1.352-.451 5.032 5.032 0 0 1-1.261-.811 3.917 3.917 0 0 1-.931-1.171 2.957 2.957 0 0 1-.36-1.592 3.935 3.935 0 0 1 .451-1.832 4.331 4.331 0 0 1 1.2-1.352 5.887 5.887 0 0 1 1.8-.871 8 8 0 0 1 2.253-.3 7.76 7.76 0 0 1 3.574.781 4.808 4.808 0 0 1 2.313 2.493l-3.245 1.316a2.527 2.527 0 0 0-1.171-1.2 3.473 3.473 0 0 0-1.532-.36 2.954 2.954 0 0 0-1.412.33.984.984 0 0 0-.6.841.9.9 0 0 0 .511.781 5.232 5.232 0 0 0 1.352.511l2.133.511a6.043 6.043 0 0 1 3.184 1.652 3.847 3.847 0 0 1 1.051 2.673 3.918 3.918 0 0 1-.421 1.742 4.791 4.791 0 0 1-1.2 1.472 6.412 6.412 0 0 1-1.892 1.021 8.009 8.009 0 0 1-2.405.328z" class="cls-1" data-name="Path 295" transform="translate(-269.224 -15.116)"></path>
        <circle id="Ellipse_50_1_" cx="1.952" cy="1.952" r="1.952" class="cls-1" transform="translate(133.219 11.062)"></circle>
    </g>
</svg>
